HIERARCHY
ROOT Hips
{
	OFFSET -0.001795 -0.223333 0.028219
	CHANNELS 6 Xposition Yposition Zposition Zrotation Yrotation Xrotation 
	JOINT LeftUpLeg
	{
		OFFSET 0.069520 -0.091406 -0.006815
		CHANNELS 3 Zrotation Yrotation Xrotation
		JOINT LeftLeg
		{
			OFFSET 0.034277 -0.375199 -0.004496
			CHANNELS 3 Zrotation Yrotation Xrotation
			JOINT LeftFoot
			{
				OFFSET -0.013596 -0.397961 -0.043693
				CHANNELS 3 Zrotation Yrotation Xrotation
				JOINT LeftToe
				{
					OFFSET 0.026358 -0.055791 0.119288
					CHANNELS 3 Zrotation Yrotation Xrotation
					End Site
					{
						OFFSET 0.000000 0.000000 0.000000
					}
				}
			}
		}
	}
	JOINT RightUpLeg
	{
		OFFSET -0.067670 -0.090522 -0.004320
		CHANNELS 3 Zrotation Yrotation Xrotation
		JOINT RightLeg
		{
			OFFSET -0.038290 -0.382569 -0.008850
			CHANNELS 3 Zrotation Yrotation Xrotation
			JOINT RightFoot
			{
				OFFSET 0.015774 -0.398415 -0.042312
				CHANNELS 3 Zrotation Yrotation Xrotation
				JOINT RightToe
				{
					OFFSET -0.025372 -0.048144 0.123348
					CHANNELS 3 Zrotation Yrotation Xrotation
					End Site
					{
						OFFSET 0.000000 0.000000 0.000000
					}
				}
			}
		}
	}
	JOINT Spine
	{
		OFFSET -0.002533 0.108963 -0.026696
		CHANNELS 3 Zrotation Yrotation Xrotation
		JOINT Spine1
		{
			OFFSET 0.005487 0.135180 0.001092
			CHANNELS 3 Zrotation Yrotation Xrotation
			JOINT Spine2
			{
				OFFSET 0.001457 0.052922 0.025425
				CHANNELS 3 Zrotation Yrotation Xrotation
				JOINT Neck
				{
					OFFSET -0.002778 0.213870 -0.042857
					CHANNELS 3 Zrotation Yrotation Xrotation
					JOINT Head
					{
						OFFSET 0.005152 0.064970 0.051349
						CHANNELS 3 Zrotation Yrotation Xrotation
						End Site
						{
							OFFSET 0.000000 0.000000 0.000000
						}
					}
				}
				JOINT LeftShoulder
				{
					OFFSET 0.078845 0.121749 -0.034090
					CHANNELS 3 Zrotation Yrotation Xrotation
					JOINT LeftArm
					{
						OFFSET 0.090977 0.030469 -0.008868
						CHANNELS 3 Zrotation Yrotation Xrotation
						JOINT LeftForeArm
						{
							OFFSET 0.259612 -0.012772 -0.027456
							CHANNELS 3 Zrotation Yrotation Xrotation
							JOINT LeftHand
							{
								OFFSET 0.249234 0.008986 -0.001171
								CHANNELS 3 Zrotation Yrotation Xrotation
								End Site
								{
									OFFSET 0.000000 0.000000 0.000000
								}
							}
						}
					}
				}
				JOINT RightShoulder
				{
					OFFSET -0.081759 0.118833 -0.038615
					CHANNELS 3 Zrotation Yrotation Xrotation
					JOINT RightArm
					{
						OFFSET -0.096012 0.032551 -0.009143
						CHANNELS 3 Zrotation Yrotation Xrotation
						JOINT RightForeArm
						{
							OFFSET -0.253742 -0.013329 -0.021401
							CHANNELS 3 Zrotation Yrotation Xrotation
							JOINT RightHand
							{
								OFFSET -0.255298 0.007772 -0.005559
								CHANNELS 3 Zrotation Yrotation Xrotation
								End Site
								{
									OFFSET 0.000000 0.000000 0.000000
								}
							}
						}
					}
				}
			}
		}
	}
}
MOTION
Frames: 18
Frame Time: 0.050000
0.000000 0.953763 0.000000 -0.517063 -4.433007 0.464614 2.113699 0.545143 7.009150 -0.697498 0.263656 -6.250543 3.204321 9.662296 13.373921 0.000000 0.000000 0.000000 -3.917428 -0.063675 3.256025 2.542671 -0.313517 -4.318044 -2.549161 -11.493334 17.138104 0.000000 0.000000 0.000000 5.789307 -0.321387 2.996527 -4.812505 1.721595 -22.829215 -1.202751 6.406371 28.349750 8.940674 -3.321037 -24.292917 0.000000 0.000000 0.000000 -6.026742 -1.589863 0.122053 -27.045249 -8.548831 -2.837220 7.815848 -14.935654 -0.499267 0.000000 0.000000 0.000000 14.155428 -8.758085 -4.514390 28.506667 10.810961 -2.350896 -8.376249 16.502148 -0.306790 0.000000 0.000000 0.000000 
0.000251 0.952372 0.000222 -0.684873 -5.340614 0.458108 2.151595 0.613035 7.695600 -0.693525 0.295697 -7.165195 3.644984 10.263574 13.307422 0.000000 0.000000 0.000000 -4.132478 -0.013685 2.819119 2.845329 -0.319985 -3.961605 -1.927490 -10.613804 17.188060 0.000000 0.000000 0.000000 5.993284 -0.368840 3.470287 -5.173728 1.789967 -23.413481 -0.769852 7.227668 28.302459 8.949201 -3.151377 -25.044280 0.000000 0.000000 0.000000 -6.556273 -1.883111 0.182531 -29.302624 -9.264267 -2.901032 6.203965 -14.512756 -0.274356 0.000000 0.000000 0.000000 15.603378 -8.772735 -4.633904 30.955996 10.442977 -2.580335 -7.313059 17.935998 -0.180102 0.000000 0.000000 0.000000 
0.000471 0.951587 0.000199 -0.609733 -5.503919 0.316875 2.610745 0.559219 7.378976 -1.708790 0.334165 -6.293748 3.758183 10.364814 12.877410 0.000000 0.000000 0.000000 -4.310277 -0.008292 2.944518 2.849700 -0.321132 -4.139026 -1.760968 -10.405207 17.356762 0.000000 0.000000 0.000000 6.313274 -0.375203 3.455073 -5.460883 1.858869 -23.526173 -0.755050 7.865726 28.942484 9.748747 -3.510596 -25.305018 0.000000 0.000000 0.000000 -7.476772 -2.869908 0.477122 -31.833128 -8.816473 -3.221431 5.528308 -16.415733 -0.222284 0.000000 0.000000 0.000000 17.244911 -8.887922 -4.760915 32.576813 11.019469 -2.607394 -5.717350 18.548453 0.056452 0.000000 0.000000 0.000000 
0.000509 0.951136 0.000482 -0.687916 -5.872692 -0.138159 2.690932 0.632626 8.234629 -1.771373 0.351755 -6.775970 3.882335 10.541686 12.884184 0.000000 0.000000 0.000000 -4.550908 -0.019238 3.459846 3.352330 -0.346811 -4.208408 -1.548394 -10.070653 17.214382 0.000000 0.000000 0.000000 6.137337 -0.382181 3.709157 -5.357021 1.827814 -23.773375 -0.639218 7.713788 29.545871 9.023863 -3.147766 -25.336974 0.000000 0.000000 0.000000 -8.671734 -2.576224 0.322133 -34.605018 -8.964435 -3.499044 4.828525 -17.476651 -0.094821 0.000000 0.000000 0.000000 18.665108 -8.756616 -4.904597 34.590687 11.396724 -2.648882 -4.717339 19.572895 0.213754 0.000000 0.000000 0.000000 
0.000456 0.951254 0.000956 -0.694882 -6.037137 -0.115309 2.872592 0.637454 8.413079 -2.115009 0.380267 -7.037600 3.900914 10.578811 13.029653 0.000000 0.000000 0.000000 -4.557627 -0.017680 3.495601 3.352340 -0.345679 -4.303935 -1.454877 -9.950407 17.248866 0.000000 0.000000 0.000000 5.846518 -0.371729 3.703906 -4.871743 1.705779 -23.420421 -0.565881 7.934802 28.686054 9.028819 -3.271473 -24.264538 0.000000 0.000000 0.000000 -9.747608 -3.061855 0.421287 -36.382908 -7.519925 -3.947163 2.951683 -18.940565 0.201481 0.000000 0.000000 0.000000 19.741631 -8.470915 -4.859547 36.115384 10.668681 -2.843468 -3.637805 20.551833 0.402987 0.000000 0.000000 0.000000 
0.000346 0.951397 0.001453 -0.715543 -6.008312 0.147240 2.844454 0.619605 8.200396 -2.024997 0.376181 -7.120550 3.896867 10.580770 13.102418 0.000000 0.000000 0.000000 -4.892072 0.017507 3.306894 4.002549 -0.379261 -4.414579 -1.432918 -9.945922 17.411310 0.000000 0.000000 0.000000 5.688361 -0.342206 3.371434 -4.909835 1.716438 -23.286037 -0.475581 7.365614 28.736542 8.523969 -2.947485 -24.912424 0.000000 0.000000 0.000000 -10.428606 -2.839855 0.351136 -39.471928 -7.439931 -4.292565 1.599498 -19.370202 0.475100 0.000000 0.000000 0.000000 20.864702 -7.976586 -4.840598 38.778437 10.630674 -2.933511 -2.700501 21.364476 0.580542 0.000000 0.000000 0.000000 
0.000173 0.951402 0.001800 -0.784357 -5.888649 0.171619 2.939986 0.625406 8.387603 -2.013365 0.382599 -7.467262 3.812676 10.467286 13.160031 0.000000 0.000000 0.000000 -4.767860 0.000552 3.440536 3.950258 -0.378032 -4.613141 -1.472025 -10.010366 17.483879 0.000000 0.000000 0.000000 5.422256 -0.336006 3.393326 -4.552169 1.629463 -23.022198 -0.479072 7.302086 28.346394 8.441979 -2.898485 -24.818836 0.000000 0.000000 0.000000 -11.970019 -3.349898 0.463594 -41.266481 -6.653911 -4.659531 -0.476955 -19.783634 0.846069 0.000000 0.000000 0.000000 22.706708 -7.260998 -4.626115 40.622300 9.344468 -3.399698 -2.015049 22.263147 0.743493 0.000000 0.000000 0.000000 
0.000049 0.951547 0.002091 -0.833807 -5.774931 0.278117 2.976169 0.593749 8.060913 -1.948869 0.369324 -7.083809 3.803916 10.446896 13.071862 0.000000 0.000000 0.000000 -4.772382 0.013482 3.173550 4.017377 -0.382197 -4.080672 -1.378511 -9.731014 17.050706 0.000000 0.000000 0.000000 5.530986 -0.344279 3.420452 -4.750141 1.681760 -22.916846 -0.395537 7.214018 28.374394 8.462530 -2.802236 -25.559516 0.000000 0.000000 0.000000 -13.302549 -3.699124 0.538991 -43.580942 -6.645381 -4.888849 -2.419193 -19.911372 1.201148 0.000000 0.000000 0.000000 24.432719 -6.722541 -4.487033 43.073412 8.534278 -3.817026 -1.184206 22.458340 0.920816 0.000000 0.000000 0.000000 
-0.000006 0.951694 0.002355 -0.855222 -5.525610 0.326425 3.110774 0.567614 7.910364 -2.079464 0.372478 -6.935986 3.685840 10.273778 13.028290 0.000000 0.000000 0.000000 -4.710021 0.006561 3.163884 3.928760 -0.379632 -3.913825 -1.351266 -9.586067 16.802419 0.000000 0.000000 0.000000 5.499404 -0.347875 3.457704 -4.790930 1.695978 -22.908479 -0.311041 7.159611 28.317319 8.350256 -2.694898 -25.720633 0.000000 0.000000 0.000000 -14.782756 -4.381105 0.747746 -45.841702 -6.779381 -5.040551 -4.115521 -19.356579 1.458932 0.000000 0.000000 0.000000 25.769780 -6.298654 -4.332269 45.993788 7.243065 -4.447728 -0.234811 22.078998 1.092666 0.000000 0.000000 0.000000 
-0.000030 0.951830 0.002638 -0.938454 -5.337534 0.238219 3.243602 0.569852 8.101082 -2.098861 0.375854 -7.096194 3.572699 10.116319 13.046511 0.000000 0.000000 0.000000 -4.636536 -0.012222 3.354671 3.942164 -0.382293 -3.743398 -1.279709 -9.321926 16.360376 0.000000 0.000000 0.000000 5.616712 -0.352053 3.473582 -4.862332 1.721773 -22.607500 -0.348115 7.060081 28.133603 8.384714 -2.627121 -26.238279 0.000000 0.000000 0.000000 -15.985549 -4.770610 0.849727 -48.581384 -6.484888 -5.386113 -5.449262 -18.789824 1.646006 0.000000 0.000000 0.000000 26.652591 -5.977871 -4.217241 48.999810 6.358285 -4.951954 1.283419 21.263782 1.312165 0.000000 0.000000 0.000000 
0.000027 0.951849 0.002932 -0.943570 -5.227324 0.188489 3.302728 0.563271 8.092684 -2.171286 0.377023 -6.976326 3.521680 10.037321 12.993200 0.000000 0.000000 0.000000 -4.576136 -0.020998 3.402477 3.871133 -0.379000 -3.618402 -1.354787 -9.398511 16.230092 0.000000 0.000000 0.000000 5.661626 -0.357242 3.522490 -4.966493 1.747467 -22.862851 -0.224236 7.119541 28.264713 8.418846 -2.606406 -26.398352 0.000000 0.000000 0.000000 -16.836905 -5.285675 1.034109 -51.154036 -5.853812 -5.898842 -6.940686 -18.527078 1.874246 0.000000 0.000000 0.000000 27.318628 -5.894518 -4.178556 51.450833 5.407945 -5.525727 2.522849 20.129588 1.439868 0.000000 0.000000 0.000000 
0.000095 0.951952 0.003155 -0.972202 -5.038361 0.184649 3.271997 0.561982 8.095861 -2.023830 0.367259 -6.992386 3.439023 9.920640 12.978209 0.000000 0.000000 0.000000 -4.681969 -0.027156 3.603424 3.992649 -0.388452 -3.719187 -1.136322 -8.948146 16.037528 0.000000 0.000000 0.000000 5.612377 -0.362881 3.602483 -4.974431 1.752891 -22.862864 -0.040215 7.082312 28.098203 8.087538 -2.337178 -26.758310 0.000000 0.000000 0.000000 -17.255965 -5.424826 1.050047 -53.344700 -5.762617 -6.136582 -7.828655 -17.888622 1.953633 0.000000 0.000000 0.000000 27.497361 -6.093187 -4.303459 53.780334 4.778803 -5.929629 3.531334 19.381831 1.542806 0.000000 0.000000 0.000000 
0.000198 0.952378 0.003251 -0.939103 -4.878831 0.032101 3.269943 0.570398 8.230003 -2.046086 0.367267 -6.972227 3.327035 9.775038 13.071786 0.000000 0.000000 0.000000 -4.593994 -0.051043 3.866472 3.855500 -0.382587 -3.849108 -1.292102 -9.225813 16.168550 0.000000 0.000000 0.000000 5.580205 -0.365439 3.671797 -4.958441 1.748617 -23.039043 0.047903 6.985283 28.170961 7.844885 -2.214918 -26.643404 0.000000 0.000000 0.000000 -17.691675 -5.589928 1.111373 -54.128476 -5.428376 -6.370788 -8.463368 -17.813314 2.049740 0.000000 0.000000 0.000000 27.821383 -5.868719 -4.176598 54.660295 4.353597 -6.199390 3.552388 18.678964 1.482032 0.000000 0.000000 0.000000 
0.000308 0.952793 0.003207 -0.932366 -4.868760 -0.051859 3.216328 0.576935 8.259083 -1.969238 0.360612 -6.877483 3.308834 9.763368 13.163903 0.000000 0.000000 0.000000 -4.824812 -0.044939 4.047874 4.070053 -0.395581 -3.963889 -0.959899 -8.699073 16.309487 0.000000 0.000000 0.000000 5.600001 -0.372865 3.768933 -4.969109 1.750289 -23.277389 0.179902 7.036890 28.372978 7.540243 -2.011605 -26.784519 0.000000 0.000000 0.000000 -17.721910 -5.732041 1.175151 -54.776795 -5.382944 -6.476638 -8.760845 -17.421642 2.048940 0.000000 0.000000 0.000000 27.873075 -5.907477 -4.176708 55.349538 4.366954 -6.268537 3.472553 18.319920 1.442805 0.000000 0.000000 0.000000 
0.000403 0.953118 0.003018 -0.915279 -4.790162 -0.062896 3.238777 0.573322 8.251681 -2.029812 0.364076 -6.891233 3.246121 9.687044 13.255229 0.000000 0.000000 0.000000 -4.986828 -0.043646 4.232596 4.161388 -0.401770 -4.238003 -0.669616 -8.243983 16.483614 0.000000 0.000000 0.000000 5.663308 -0.372096 3.734325 -5.029547 1.765436 -23.386277 0.202959 6.958392 28.438600 7.600053 -2.032703 -26.930641 0.000000 0.000000 0.000000 -17.514082 -5.776234 1.219361 -55.069476 -5.308435 -6.553271 -8.911046 -17.444173 2.076661 0.000000 0.000000 0.000000 27.940147 -6.020587 -4.269108 55.521973 4.486308 -6.229428 3.253796 18.116669 1.394487 0.000000 0.000000 0.000000 
0.000438 0.953181 0.002695 -0.930417 -4.890901 0.069035 3.315321 0.557697 8.105017 -2.169274 0.373166 -6.899376 3.289612 9.752462 13.301863 0.000000 0.000000 0.000000 -5.233596 -0.020506 4.200289 4.363118 -0.411122 -4.433326 -0.176538 -7.440230 16.550303 0.000000 0.000000 0.000000 5.617593 -0.365175 3.648605 -5.018120 1.758224 -23.547467 0.283734 6.833847 28.420433 7.275041 -1.868246 -26.967882 0.000000 0.000000 0.000000 -17.423063 -5.762258 1.264246 -55.325917 -5.450432 -6.518049 -9.000067 -17.182854 2.061628 0.000000 0.000000 0.000000 27.827971 -5.911381 -4.262167 55.659153 4.509180 -6.200285 2.821259 18.178928 1.335073 0.000000 0.000000 0.000000 
0.000464 0.953296 0.002339 -0.906355 -4.890454 0.065570 3.388305 0.550770 8.080506 -2.343140 0.383584 -6.894606 3.268230 9.726247 13.346927 0.000000 0.000000 0.000000 -5.305973 -0.014435 4.185651 4.328062 -0.409266 -4.433643 0.020613 -7.121422 16.600345 0.000000 0.000000 0.000000 5.599412 -0.372809 3.743988 -5.042168 1.760790 -23.781156 0.319990 6.626256 28.401588 7.216165 -1.868956 -26.978664 0.000000 0.000000 0.000000 -17.468437 -5.945495 1.410238 -55.232008 -5.478685 -6.498521 -9.229068 -17.142754 2.093705 0.000000 0.000000 0.000000 27.776544 -5.901140 -4.334589 55.654021 4.519923 -6.169549 2.637907 18.251029 1.309858 0.000000 0.000000 0.000000 
0.000536 0.953333 0.001982 -0.919672 -5.051735 -0.066558 3.503989 0.559415 8.253942 -2.558276 0.398627 -6.941644 3.313468 9.793473 13.393886 0.000000 0.000000 0.000000 -5.447151 -0.007521 4.292561 4.404983 -0.411745 -4.451465 0.378335 -6.566295 16.691157 0.000000 0.000000 0.000000 5.568961 -0.390568 3.994071 -5.013202 1.748488 -24.050920 0.398187 6.545380 28.470302 6.941838 -1.728269 -27.089495 0.000000 0.000000 0.000000 -17.454118 -6.026093 1.502053 -55.310553 -5.713185 -6.417853 -9.430439 -16.797474 2.081633 0.000000 0.000000 0.000000 27.689640 -5.844217 -4.355242 55.684490 4.500697 -6.171438 2.458852 18.596701 1.311003 0.000000 0.000000 0.000000 
